<svg xmlns="http://www.w3.org/2000/svg" width="128" height="128" viewBox="0 0 128 128" role="img" aria-labelledby="title">
	<title id="title">Quiz Lab</title>
	<rect width="128" height="128" rx="28" fill="#0f766e" />
	<circle cx="64" cy="64" r="39" fill="#ffffff" />
	<path
		d="M65 34c18.2 0 31 12.4 31 30.2 0 10.5-4.6 19.3-12.3 24.6l9.2 10.4h-17l-4.4-5.4c-2.1.4-4.3.6-6.5.6-18.1 0-31-12.5-31-30.2S46.9 34 65 34Zm0 14.1c-9.1 0-15.1 6.4-15.1 16.1 0 9.9 6 16.3 15.1 16.3 8.9 0 15-6.4 15-16.3 0-9.7-6.1-16.1-15-16.1Z"
		fill="#111111"
	/>
</svg>
